<svg width="1200" height="900" viewBox="0 0 1200 900" fill="none" xmlns="http://www.w3.org/2000/svg">
  <rect width="1200" height="900" rx="48" fill="#F7F0FA"/>
  <circle cx="936" cy="178" r="164" fill="#E9DDF0"/>
  <circle cx="232" cy="758" r="214" fill="#F3E8D3"/>
  <rect x="114" y="114" width="972" height="672" rx="36" fill="url(#paint0_linear)"/>
  <rect x="184" y="184" width="832" height="532" rx="28" fill="rgba(255,255,255,0.22)" stroke="rgba(255,255,255,0.45)" stroke-width="2"/>
  <circle cx="420" cy="432" r="128" fill="rgba(255,255,255,0.12)" stroke="rgba(255,255,255,0.44)" stroke-width="4"/>
  <path d="M372 487C399 445 444 413 493 392" stroke="#F8EAD2" stroke-width="22" stroke-linecap="round"/>
  <path d="M509 378L590 297" stroke="#F8EAD2" stroke-width="22" stroke-linecap="round"/>
  <path d="M575 283L618 326" stroke="#6A3E7C" stroke-width="16" stroke-linecap="round"/>
  <path d="M359 355C401 304 476 275 548 281" stroke="#FFFFFF" stroke-opacity="0.88" stroke-width="8" stroke-linecap="round"/>
  <path d="M693 286H900" stroke="#FFFFFF" stroke-opacity="0.62" stroke-width="8" stroke-linecap="round"/>
  <path d="M693 336H950" stroke="#FFFFFF" stroke-opacity="0.5" stroke-width="8" stroke-linecap="round"/>
  <path d="M693 386H870" stroke="#FFFFFF" stroke-opacity="0.4" stroke-width="8" stroke-linecap="round"/>
  <path d="M693 508H952" stroke="#FFFFFF" stroke-opacity="0.62" stroke-width="8" stroke-linecap="round"/>
  <path d="M693 558H917" stroke="#FFFFFF" stroke-opacity="0.5" stroke-width="8" stroke-linecap="round"/>
  <path d="M693 608H840" stroke="#FFFFFF" stroke-opacity="0.4" stroke-width="8" stroke-linecap="round"/>
  <defs>
    <linearGradient id="paint0_linear" x1="114" y1="114" x2="1086" y2="786" gradientUnits="userSpaceOnUse">
      <stop stop-color="#6A3E7C"/>
      <stop offset="0.65" stop-color="#87559A"/>
      <stop offset="1" stop-color="#C9A15B"/>
    </linearGradient>
  </defs>
</svg>
