<svg width="1200" height="900" viewBox="0 0 1200 900" fill="none" xmlns="http://www.w3.org/2000/svg">
  <rect width="1200" height="900" rx="48" fill="#F8F3FB"/>
  <circle cx="1026" cy="172" r="156" fill="#EFE2F3"/>
  <circle cx="172" cy="742" r="186" fill="#F3E7D1"/>
  <rect x="110" y="118" width="980" height="664" rx="36" fill="url(#paint0_linear)"/>
  <rect x="250" y="268" width="700" height="368" rx="40" fill="rgba(255,255,255,0.14)" stroke="rgba(255,255,255,0.45)" stroke-width="4"/>
  <rect x="340" y="332" width="520" height="238" rx="28" fill="rgba(255,255,255,0.1)" stroke="rgba(255,255,255,0.4)" stroke-width="4"/>
  <circle cx="600" cy="452" r="112" fill="rgba(255,255,255,0.06)" stroke="#F9EBD4" stroke-width="22"/>
  <circle cx="600" cy="452" r="58" fill="none" stroke="white" stroke-opacity="0.72" stroke-width="10"/>
  <rect x="436" y="232" width="128" height="48" rx="20" fill="#F9EBD4"/>
  <path d="M788 250H866" stroke="#FFFFFF" stroke-opacity="0.7" stroke-width="10" stroke-linecap="round"/>
  <path d="M220 654C310 585 392 550 518 530" stroke="#FFFFFF" stroke-opacity="0.45" stroke-width="8" stroke-linecap="round"/>
  <path d="M758 612C832 560 886 516 970 424" stroke="#FFFFFF" stroke-opacity="0.45" stroke-width="8" stroke-linecap="round"/>
  <defs>
    <linearGradient id="paint0_linear" x1="110" y1="118" x2="1090" y2="782" gradientUnits="userSpaceOnUse">
      <stop stop-color="#5A355F"/>
      <stop offset="0.6" stop-color="#7A4A88"/>
      <stop offset="1" stop-color="#C9A15B"/>
    </linearGradient>
  </defs>
</svg>
